<?xml version="1.0" encoding="UTF-8"?>
<svg id="Calque_2" data-name="Calque 2" xmlns="http://www.w3.org/2000/svg" viewBox="0 0 73.78 77.38">
  <defs>
    <style>
      .cls-1 {
        fill: #723958;
      }

      .cls-1, .cls-2 {
        stroke-width: 0px;
      }

      .cls-2 {
        fill: #ea4f68;
      }
    </style>
  </defs>
  <g id="Calque_1-2" data-name="Calque 1">
    <g id="recyclage">
      <g>
        <path class="cls-2" d="m20.05,13.74l9.58,6.95s5.27-11.74,15.33-6.95c0,0-4.31-11.02-12.46-9.34-8.15,1.68-10.3,4.31-12.46,9.34Z"/>
        <path class="cls-1" d="m48.42,15.19l11.97-5.53s-10.09-15.11-27.89-7.55c0,0,8.73-2.58,15.91,13.08Z"/>
        <polygon class="cls-1" points="39.76 21.64 70.71 6.54 62.05 27.9 39.76 21.64"/>
      </g>
      <g>
        <path class="cls-2" d="m69.9,29.86l-10.8,4.85s7.56,10.41-1.61,16.76c0,0,11.7,1.75,14.3-6.15s1.39-11.08-1.9-15.46Z"/>
        <path class="cls-1" d="m54.51,53.74l-1.17,13.14s18.12-1.23,20.43-20.43c0,0-2.11,8.86-19.27,7.29Z"/>
        <polygon class="cls-1" points="53.23 43.02 50.92 77.38 36.7 59.23 53.23 43.02"/>
      </g>
      <g>
        <path class="cls-2" d="m31.55,65.77l1.23-11.77s-12.8,1.3-13.68-9.81c0,0-7.39,9.24-1.87,15.46,5.52,6.22,8.88,6.77,14.32,6.12Z"/>
        <path class="cls-1" d="m18.64,40.46l-10.77-7.61S-.18,49.14,15.26,60.78c0,0-6.6-6.27,3.38-20.32Z"/>
        <polygon class="cls-1" points="28.55 44.74 0 25.48 22.84 22.3 28.55 44.74"/>
      </g>
    </g>
  </g>
</svg>