<?xml version="1.0" encoding="UTF-8"?>
<svg id="Calque_2" data-name="Calque 2" xmlns="http://www.w3.org/2000/svg" viewBox="0 0 77.29 74.82">
  <defs>
    <style>
      .cls-1 {
        fill: #0d85c5;
      }

      .cls-1, .cls-2, .cls-3 {
        stroke-width: 0px;
      }

      .cls-2 {
        fill: #423264;
      }

      .cls-3 {
        fill: #8fd3f3;
      }
    </style>
  </defs>
  <g id="Calque_1-2" data-name="Calque 1">
    <g id="médoc">
      <path class="cls-3" d="m21.46,74.8h44.36c2.26,0,4.35-1.19,5.5-3.13h0c.37-.63.39-1.4.14-2.08L50.04,11.42c-1.59-4.32-4.73-7.98-8.92-9.9-.3-.14-.61-.27-.93-.39-4.13-1.61-8.74-1.45-12.89.1L10.78,7.4c-2.81,1.05-5.36,2.77-7.21,5.13C1.91,14.65.41,17.63.06,21.62c-.26,2.97.28,5.96,1.33,8.75l15.19,40.23s1.84,3.98,4.88,4.2Z"/>
      <path class="cls-1" d="m58.48,34.33l8.58,4.28c4.14,2.07,7.53,5.51,9.17,9.84.13.35.26.71.37,1.08,1.28,4.16.74,8.67-1.13,12.6l-3.85,8.07-13.13-35.88Z"/>
      <circle class="cls-1" cx="15.37" cy="25.48" r="7.36"/>
      <circle class="cls-1" cx="22.73" cy="45.8" r="7.36"/>
      <circle class="cls-1" cx="30.09" cy="66.13" r="7.36"/>
      <circle class="cls-1" cx="51.92" cy="57.81" r="7.36"/>
      <circle class="cls-1" cx="44.56" cy="37.4" r="7.36"/>
      <circle class="cls-1" cx="37.2" cy="17" r="7.36"/>
      <path class="cls-1" d="m52.68,74.8h13.14s-2.01-4.42-6.55-4.6c0,0-5.18-.42-6.59,4.6Z"/>
      <path class="cls-2" d="m63.12,47.02l4.87,13.31s3.95-3.49,2.59-8.26c0,0-1.48-5.42-7.46-5.05Z"/>
      <path class="cls-1" d="m45.33,74.8h0c-1.39,0-.81,0-2.49,0L23.5,22.82c-.5-1.36.2-2.86,1.55-3.36h0c1.36-.5,2.86.2,3.36,1.55l19.76,53.79c-.7.03-.9,0-2.83,0Z"/>
    </g>
  </g>
</svg>