<?xml version="1.0" encoding="UTF-8"?>
<svg id="Calque_2" data-name="Calque 2" xmlns="http://www.w3.org/2000/svg" viewBox="0 0 155.11 181.27">
  <defs>
    <style>
      .cls-1 {
        fill: #423264;
      }

      .cls-1, .cls-2 {
        stroke-width: 0px;
      }

      .cls-2 {
        fill: #8fd3f3;
      }
    </style>
  </defs>
  <g id="Calque_1-2" data-name="Calque 1">
    <path class="cls-2" d="m53.81,101.45s12.32,11.11,14.66,34.53c.54,5.35.08,10.75-1.27,15.95-1.73,6.65-4.68,16.84-8.16,24.01,0,0-1.68,3.72,2.29,3.21,3.96-.51,13.28-1.76,16.73.05,3.45,1.81,11.22,3.59,11.89,0s7.43-1.91,11.65-.72-2.03-8.61-2.03-8.61c0,0-4.03-7.49-7.32-17.94-1.96-6.21-2.75-12.73-2.28-19.22.54-7.46,2.1-18.29,6.39-29.48l1.68-3.54-6.12-2.12s0,7.77-8.36,19.66c0,0-2.94,3.18-2.71-6.47.24-9.65,2.12-19.54,2.12-19.54l-6.71-1.35s2,5.12-2.59,14.77c0,0-6,7.18-17.18-6.47l-3.77-2.59-.71,4.47,1.78,1.42Z"/>
    <path class="cls-1" d="m65.28,123.79s-4.08-2.29-5.39-3.76c0,0-23.52,21.39-38.21-10.45,0,0-13.55,7.68-21.07-8.98,0,0-3.76-10.94,7.35-16.98,0,0-15.02-22.21,12.08-41.15,0,0-3.43-13.88,11.59-22.86,0,0,9.8-4.41,18.45-.98,0,0,2.12-16.66,21.23-18.62,0,0,18.45-.65,22.21,16.98,0,0,11.59-2.45,19.76,10.78,0,0,17.8,1.8,19.76,20.09,0,0,16.49,1.63,19.11,18.62,0,0,1.8,9.8-3.76,16,0,0,11.1,4.08,4.74,16.33,0,0-5.06,7.51-13.39,3.43,0,0-2.78,8.66-10.12,9.31,0,0-5.23,1.63-12.41-1.96,0,0,1.8,13.39-11.59,15.84,0,0-7.35,1.96-13.88-3.92l-26.46,2.29Z"/>
  </g>
</svg>