<?xml version="1.0" encoding="UTF-8"?>
<svg id="Calque_2" data-name="Calque 2" xmlns="http://www.w3.org/2000/svg" viewBox="0 0 70.3 96.4">
  <defs>
    <style>
      .cls-1 {
        fill: #723958;
      }

      .cls-1, .cls-2, .cls-3 {
        stroke-width: 0px;
      }

      .cls-2 {
        fill: #8fd3f3;
      }

      .cls-3 {
        fill: #ea4f68;
      }
    </style>
  </defs>
  <g id="Calque_1-2" data-name="Calque 1">
    <g id="pomme">
      <path class="cls-3" d="m0,34.05s20.66,2.92,20.21,24.93c-.45,22.01-14.6,21.33-14.6,21.33,0,0,8.09,4.89,13.32,2.42,0,0,7.26,6.97,15.83,0,0,0,6.83,5.66,13.51-.73,0,0,4.07,5.08,18.16-1.89,0,0-19.75-4.5-17.43-26.58,0,0,0-14.42,15.25-19.48,0,0-10.31-6.37-16.56,2.05,0,0-9.88-7.55-19.46.73,0,0-7.26-7.7-14.38-.44,0,0-4.61-6.87-13.85-2.34Z"/>
      <path class="cls-1" d="m0,34.05s4.46-16.84,24.63-15.87c0,0,12.27,2.7,19.16-.04,6.89-2.74,24.32.11,26.51,12.59,0,0-6.26-1.05-6.05,3.32,0,0-10.36-6.51-16.56,2.05,0,0-9.51-7.76-19.46.73,0,0-7.17-7.71-14.38-.44,0,0-4.22-6.86-13.85-2.34Z"/>
      <path class="cls-1" d="m5.61,80.31s4.31,15.84,29.54,16.08c25.22.25,31.28-16.28,31.28-16.28,0,0-12.56,7-18.16,1.89,0,0-5.49,6.44-13.51.73,0,0-7.39,7-15.83,0,0,0-5,2.42-13.32-2.42Z"/>
      <path class="cls-2" d="m32.69,61.79s-3.03-1.03-3.98-5.5c-.23-1.1.1-2.29.99-2.98.54-.42,1.27-.64,2.17-.16s1.43,1.34,1.58,2.32c.26,1.6.47,4.43-.77,6.33Z"/>
      <path class="cls-2" d="m36.96,63.49c-.23-1.19-.75-4.32-.27-6.71.12-.58.4-1.12.85-1.5s1.07-.57,1.93-.36c1.72.42,1.86,1.48,1.72,2.91-.13,1.3-1.93,5.28-3.56,6.02-.28.13-.61-.06-.67-.37Z"/>
      <path class="cls-1" d="m34.09,19.34s-.26-6.89-3.86-11.79c-.84-1.14-1.9-2.09-3.06-2.9-1.24-.87-3.38-2.81-.57-4.37,3.74-2.08,9.2,7.55,11.12,19.03,0,0-2.94.06-3.64.03Z"/>
    </g>
  </g>
</svg>