<?xml version="1.0" encoding="UTF-8"?>
<svg id="Calque_2" data-name="Calque 2" xmlns="http://www.w3.org/2000/svg" viewBox="0 0 73.75 90.03">
  <defs>
    <style>
      .cls-1 {
        fill: none;
        stroke: #723958;
        stroke-miterlimit: 10;
        stroke-width: 2px;
      }

      .cls-2 {
        fill: #723958;
      }

      .cls-2, .cls-3 {
        stroke-width: 0px;
      }

      .cls-3 {
        fill: #ea4f68;
      }
    </style>
  </defs>
  <g id="Calque_1-2" data-name="Calque 1">
    <g id="boite_conserv" data-name="boite conserv">
      <rect class="cls-3" x="1.95" y="50.24" width="60.51" height="35.85"/>
      <path class="cls-2" d="m1.95,50.24s-1.84.05-1.95-2.05,1.95-1.89,1.95-1.89l60.51.24s1.78-.08,1.78,2.16c0,1.32-1.78,1.54-1.78,1.54H1.95Z"/>
      <path class="cls-2" d="m1.95,90.03s-1.84.05-1.95-2.05,1.95-1.89,1.95-1.89l60.51.24s1.78-.08,1.78,2.16c0,1.32-1.78,1.54-1.78,1.54H1.95Z"/>
      <rect class="cls-2" x="1.95" y="57.95" width="60.51" height="3.61"/>
      <rect class="cls-2" x="1.95" y="66.97" width="60.51" height="3.61"/>
      <rect class="cls-2" x="1.95" y="75.84" width="60.51" height="3.61"/>
      <path class="cls-3" d="m29.14,46.41s.55-4.83-3.72-6.64c-2.39-1.01-3.62-3.75-2.74-6.2.02-.05.03-.09.05-.14,0,0,1.07-2.84-2.27-5.08-2.51-1.86,2.01-6.15,2.01-6.15,0,0,1.62-1.62.39-4.57-.8-1.93.05-4.21,2.02-4.93.04-.01.08-.03.12-.04,2.03-.7,3.58-2.46,3.62-4.62,0-.05,0-.1,0-.14,0,0,.27-4.01,5.08-3.34,0,0,3.07.67,4.68-2.41,0,0,1.34-4.14,6.68-.94,0,0,1.74,1.47,5.35-.53,0,0,3.13-1.81,5.08,1.87,0,0,1.6,2.54,4.81,2.14,0,0,4.81-1.47,4.81,4.28,0,0-.13,3.07,3.74,4.01,0,0,4.01.27,2.01,5.48,0,0-1.6,2.54,2.01,5.62,0,0,2.67,2.81-1.2,5.75,0,0-2.15,1.29-.86,5.11.73,2.18-.4,4.62-2.64,5.16-.04,0-.07.02-.11.02,0,0-2.62-.02-3.21,4.28,0,0-.19,2.9-1.28,2.52,0,0-.67-.51-1.09-.38l-33.33-.13Z"/>
      <circle class="cls-1" cx="46.72" cy="25.99" r="19.86"/>
      <circle class="cls-1" cx="46.72" cy="26.5" r="12.33"/>
      <circle class="cls-1" cx="46.72" cy="26.4" r="5.3"/>
    </g>
  </g>
</svg>