<?xml version="1.0" encoding="UTF-8"?>
<svg id="Calque_2" data-name="Calque 2" xmlns="http://www.w3.org/2000/svg" viewBox="0 0 75.29 90.05">
  <defs>
    <style>
      .cls-1 {
        stroke: #423264;
      }

      .cls-1, .cls-2 {
        fill: none;
        stroke-linecap: round;
        stroke-linejoin: round;
      }

      .cls-2 {
        stroke: #662483;
      }

      .cls-3 {
        fill: #423264;
      }

      .cls-3, .cls-4 {
        stroke-width: 0px;
      }

      .cls-4 {
        fill: #8fd3f3;
      }
    </style>
  </defs>
  <g id="Calque_1-2" data-name="Calque 1">
    <g id="sac_poubelle" data-name="sac poubelle">
      <path class="cls-4" d="m31.02,19.79l-1.26,1.8s-12.8-6.28-21.47,8.6c-2.81,4.82-3.7,10.61-1.96,15.9.64,1.96,1.67,4,3.25,5.99,0,0-10.57,6.17-9.51,19.2.38,4.66,2.35,8.19,4.73,10.8,3.78,4.15,9.19,6.43,14.81,6.63l39.09,1.33c3.35.11,6.71-.66,9.54-2.45,3.52-2.22,7.05-6.36,7.05-14.03,0,0,0-7.05-4.58-10.57,0,0,4.76-10.18-3.35-18.13,0,0,4.93-10.94-5.28-20.1,0,0-6.89-5.96-15.77-3.23l-.88-1.74,6.07-14c.55-1.27.54-2.77-.2-3.95-.54-.87-1.49-1.65-3.15-1.84h-12.09c-.73,0-1.46.14-2.11.48-.91.47-1.92,1.4-1.94,3.2,0,.86.25,1.7.65,2.46l1.95,3.71-6-1.88c-.92-.29-1.91-.32-2.82.01-1.01.37-2.11,1.19-2.47,2.99,0,0-.48,2.16,1.04,3.68l6.65,5.14Z"/>
      <path class="cls-2" d="m8.25,69.48s.39,8.81,11.43,13.44"/>
      <path class="cls-1" d="m34.29,22.4s-21.23,2.56-20.99,16.71"/>
      <path class="cls-1" d="m37.14,23.11s-9.33,11.2-5.98,30.86"/>
      <path class="cls-1" d="m42.44,22.86s16.05-.42,13.53,25.35"/>
      <path class="cls-3" d="m31.02,19.79h14.41l.88,1.74s-6.2,5.19-16.55.05l1.26-1.8Z"/>
    </g>
  </g>
</svg>