<?xml version="1.0" encoding="UTF-8"?>
<svg id="Calque_2" data-name="Calque 2" xmlns="http://www.w3.org/2000/svg" viewBox="0 0 88.84 49.38">
  <defs>
    <style>
      .cls-1 {
        fill: #723958;
      }

      .cls-1, .cls-2, .cls-3 {
        stroke-width: 0px;
      }

      .cls-2 {
        fill: #0d85c5;
      }

      .cls-3 {
        fill: #8fd3f3;
      }
    </style>
  </defs>
  <g id="Calque_1-2" data-name="Calque 1">
    <g id="arrête_poisson" data-name="arrête poisson">
      <path class="cls-3" d="m26.42,26.75v17.54c0,2.67-3.1,4.14-5.16,2.45L2.79,31.65C1.02,30.21,0,28.06,0,25.78h0c0-2.35.97-4.6,2.67-6.21L22.61.64c1.44-1.37,3.81-.35,3.81,1.64v18.74l7.36.02s-.05-19.77,4.89-14.53v14.68h6.29s.08-27.58,4.74-19.81v19.89h6.76s.23-17.56,4.97-12.35v12.43h9.8v5.84h-9.78l-.06,13.2s-4.86,6.54-5.09-13.6h-6.6v21.24s-4.58,9.43-5.18-21.37h-5.73v16.13s-4.47,7.93-5.13-16l-7.24-.03Z"/>
      <path class="cls-2" d="m66.51,19.29c.46-4.57,2.86-15.26,15.29-16.23,4.32-.34,7.8,3.66,6.88,7.89-.35,1.6-1.08,3.51-2.36,5.79,0,0-3.01,5.6-7.58,6.95,0,0,9.91,5.31,9.9,13.55,0,3.28-2.67,5.95-5.95,6.08-5.34.22-13.75-1.71-16.15-15.22-.16-.89-.11-1.82.2-2.67.24-.64.63-1.27,1.27-1.48,0,0,0,0-.02-.03-1.14-1.25-1.66-2.94-1.49-4.63Z"/>
      <circle class="cls-1" cx="12.65" cy="20.18" r="3.01"/>
    </g>
  </g>
</svg>