<?xml version="1.0" encoding="UTF-8"?>
<svg id="Calque_2" data-name="Calque 2" xmlns="http://www.w3.org/2000/svg" viewBox="0 0 740.64 761.92">
  <defs>
    <style>
      .cls-1 {
        fill: #723958;
      }

      .cls-1, .cls-2, .cls-3 {
        stroke-width: 0px;
      }

      .cls-2 {
        fill: #8fd3f3;
      }

      .cls-3 {
        fill: #ea4f68;
      }
    </style>
  </defs>
  <g id="Calque_1-2" data-name="Calque 1">
    <path class="cls-3" d="m624.82,347.95s78.85,7.69,71.25-83.06c-7.6-90.74,6-114.52,6-114.52,0,0-75.51,5.29-110.6,74.88s8.73,116.9,21.04,119.8c0,0,1.51-19.97,3.31-26.41,0,0-28.71-25.73-18.37-50.02,0,0,.32,22.68,20.4,41.4,0,0,4.77-23.79,7.42-27.92,0,0-14.85-15.96-12.12-31.12,0,0,2.51,14.26,15.45,24.12,0,0,4.23-17.03,7.72-23.84,0,0-7.31-9.07-6-16.11,0,0,2.73,7.71,8.96,11.88,0,0,31.4-69.68,45.87-78.82,0,0-40.9,73.28-40.56,83.08,0,0,14.24-3.55,22.75-7.41,0,0-14.36,11.45-24.05,12.76,0,0-9.68,19.46-8.59,23.37,0,0,27.15-8.86,32.54-16.63,0,0-10.36,18.63-33.6,22.96,0,0-8.1,18.87-7.74,26.12,0,0,23.58-3.92,36.69-19.97,0,0-5.03,17.14-36.33,27.22,0,0-4.79,14.14-1.44,28.24Z"/>
    <path class="cls-1" d="m697.55,415.18s-50.34-18.5-60.86,42.25c-10.51,60.75-23.48,74.01-23.48,74.01,0,0,50.37,9.42,85.24-30.18,34.87-39.6,14.24-78.08,6.67-82.08,0,0-4.4,12.83-6.68,16.74,0,0,14.42,21.76,3.5,35.91,0,0,3.66-14.91-6.3-30.61,0,0-7.18,14.77-9.63,17.03,0,0,7.01,12.99,2.63,22.46,0,0,.79-9.77-6-18.44,0,0-5.68,10.44-9.13,14.3,0,0,3.24,7.19,1.18,11.58,0,0-.47-5.52-3.85-9.31,0,0-32.47,40.29-43.51,43.81,0,0,39.31-41.03,40.76-47.51,0,0-9.93-.1-16.17.97,0,0,11.36-5.05,17.93-4.25,0,0,9.67-11.09,9.62-13.85,0,0-19.3,1.17-24.16,5.34,0,0,9.97-10.44,25.93-9.31,0,0,8.53-10.98,9.53-15.79,0,0-16.12-1.46-27.45,6.82,0,0,6.22-10.37,28.45-11.63,0,0,5.55-8.44,5.77-18.25Z"/>
    <path class="cls-1" d="m45.49,1.85S20.9-8.85,13.88,21.17C6.86,51.19,0,57.43,0,57.43c0,0,24.87,6.17,43.43-12.58,18.56-18.75,9.38-38.56,5.72-40.78,0,0-2.57,6.27-3.82,8.16,0,0,6.56,11.28.7,18.03,0,0,2.26-7.34-2.25-15.46,0,0-4.02,7.16-5.3,8.22,0,0,3.12,6.69.66,11.29,0,0,.68-4.85-2.46-9.38,0,0-3.14,5.04-4.97,6.87,0,0,1.41,3.68.25,5.81,0,0-.08-2.77-1.65-4.76,0,0-17.38,19.17-22.99,20.6,0,0,20.81-19.33,21.73-22.53,0,0-4.96-.34-8.1.01,0,0,5.82-2.19,9.07-1.6,0,0,5.15-5.26,5.2-6.63,0,0-9.67.02-12.21,1.96,0,0,5.28-4.92,13.22-3.89,0,0,4.58-5.23,5.22-7.6,0,0-8-1.2-13.9,2.6,0,0,3.41-4.99,14.54-4.98,0,0,3.02-4.05,3.41-8.94Z"/>
    <path class="cls-1" d="m737.93,682.61s8.03-8.78-3.55-16.05c-11.59-7.27-13.22-11.05-13.22-11.05,0,0-6.17,9.55-.98,20.04,5.2,10.49,14.83,9.49,16.29,8.27,0,0-2.26-1.98-2.87-2.78,0,0-5.68,1.13-7.66-2.3,0,0,2.75,2.01,6.81,1.28,0,0-2.43-2.72-2.68-3.41,0,0-3.26.35-4.83-1.35,0,0,1.94.98,4.29.32,0,0-1.66-2.04-2.17-3.08,0,0-1.75.06-2.48-.73,0,0,1.17.37,2.23,0,0,0-5.54-10.05-5.33-12.62,0,0,5.11,11.52,6.32,12.36,0,0,.86-2.03,1.16-3.4,0,0,.08,2.76-.64,4.04,0,0,1.46,2.92,2.03,3.14,0,0,1.38-4.06.94-5.41,0,0,1.3,2.92-.27,6.11,0,0,1.54,2.67,2.44,3.28,0,0,1.65-3.19.91-6.21,0,0,1.6,2.15,0,6.82,0,0,1.27,1.85,3.26,2.72Z"/>
    <path class="cls-1" d="m276.14,282.64s27.85-30.43-12.32-55.63c-40.17-25.2-45.82-38.3-45.82-38.3,0,0-21.4,33.1-3.39,69.47,18.01,36.37,51.41,32.9,56.47,28.68,0,0-7.85-6.87-9.96-9.63,0,0-19.69,3.92-26.57-7.99,0,0,9.55,6.95,23.62,4.45,0,0-8.42-9.42-9.31-11.82,0,0-11.29,1.2-16.75-4.68,0,0,6.72,3.41,14.87,1.11,0,0-5.77-7.08-7.51-10.66,0,0-6.06.21-8.58-2.54,0,0,4.06,1.27,7.75-.02,0,0-19.2-34.86-18.49-43.74,0,0,17.73,39.94,21.92,42.86,0,0,2.97-7.04,4.02-11.79,0,0,.28,9.56-2.2,14,0,0,5.08,10.11,7.05,10.88,0,0,4.8-14.08,3.25-18.75,0,0,4.52,10.14-.94,21.17,0,0,5.33,9.27,8.46,11.39,0,0,5.74-11.04,3.15-21.52,0,0,5.56,7.45-.02,23.64,0,0,4.39,6.41,11.31,9.43Z"/>
    <path class="cls-1" d="m597.96,155.81s8.03-8.78-3.55-16.05c-11.59-7.27-13.22-11.05-13.22-11.05,0,0-6.17,9.55-.98,20.04,5.2,10.49,14.83,9.49,16.29,8.27,0,0-2.26-1.98-2.87-2.78,0,0-5.68,1.13-7.66-2.3,0,0,2.75,2.01,6.81,1.28,0,0-2.43-2.72-2.68-3.41,0,0-3.26.35-4.83-1.35,0,0,1.94.98,4.29.32,0,0-1.66-2.04-2.17-3.08,0,0-1.75.06-2.48-.73,0,0,1.17.37,2.23,0,0,0-5.54-10.05-5.33-12.62,0,0,5.11,11.52,6.32,12.36,0,0,.86-2.03,1.16-3.4,0,0,.08,2.76-.64,4.04,0,0,1.46,2.92,2.03,3.14,0,0,1.38-4.06.94-5.41,0,0,1.3,2.92-.27,6.11,0,0,1.54,2.67,2.44,3.28,0,0,1.65-3.19.91-6.21,0,0,1.6,2.15,0,6.82,0,0,1.27,1.85,3.26,2.72Z"/>
    <path class="cls-2" d="m713.57,27.2s-30.56-50.14-80.94-5.22c-50.38,44.92-70.53,47.45-70.53,47.45,0,0,36.77,42.38,93.63,32.18,56.86-10.2,65.38-57.24,61.61-65.82,0,0-12.51,8-17.12,9.8,0,0-2.46,28.47-21.46,33.16,0,0,13.29-10.29,15.45-30.53,0,0-16.22,7.77-19.85,8.04,0,0-2.84,15.91-13.05,21.04,0,0,7.33-7.84,7.41-19.89,0,0-11.97,5.08-17.56,6.04,0,0-2.12,8.37-6.87,10.73,0,0,3.35-5.05,3.05-10.6,0,0-55.27,12.43-67.13,7.93,0,0,61.63-8.4,67.29-12.97,0,0-8.44-6.85-14.52-10.18,0,0,13.18,3.41,18.27,8.57,0,0,15.84-2.93,17.67-5.32,0,0-17.34-12.14-24.34-11.88,0,0,15.65-2.16,28.57,9.68,0,0,14.79-3.6,18.92-7.04,0,0-12.82-12.22-28.17-12.85,0,0,12.4-4.65,32.31,9.4,0,0,10.51-3.46,17.37-11.72Z"/>
    <path class="cls-1" d="m484.89,126.7s37.66-36.19-11.04-71.3c-48.7-35.11-54.78-52.12-54.78-52.12,0,0-29.73,40.09-9.93,87.5,19.8,47.42,62.29,45.76,69.02,40.84,0,0-9.35-9.32-11.81-12.98,0,0-25.2,3.35-32.93-12.25,0,0,11.5,9.56,29.48,7.54,0,0-9.87-12.59-10.8-15.69,0,0-14.36.6-20.78-7.28,0,0,8.22,4.86,18.7,2.61,0,0-6.72-9.42-8.63-14.09,0,0-7.68-.23-10.64-3.9,0,0,5.03,1.94,9.79.6,0,0-21.43-45.61-19.8-56.77,0,0,19.16,51.91,24.21,55.94,0,0,4.33-8.65,6.04-14.57,0,0-.43,12.1-3.92,17.51,0,0,5.59,13.19,8.02,14.32,0,0,7.21-17.4,5.63-23.43,0,0,4.89,13.18-2.91,26.68,0,0,5.97,12.15,9.76,15.08,0,0,8.15-13.49,5.73-26.94,0,0,6.42,9.87-1.95,29.87,0,0,5.03,8.46,13.52,12.83Z"/>
    <path class="cls-3" d="m344.83,285.73s34.19,19.34,49-23.31c14.81-42.66,25.76-50.7,25.76-50.7,0,0-35.29-12.79-65.19,11.69-29.9,24.48-19.56,54.74-14.56,58.53,0,0,4.7-8.75,6.81-11.3,0,0-7.84-17.44,1.74-26.37,0,0-4.42,10.34.92,22.87,0,0,6.95-9.82,8.98-11.16,0,0-3.52-10.22.77-16.54,0,0-1.73,6.97,2.15,14.04,0,0,5.34-6.87,8.29-9.25,0,0-1.49-5.58.52-8.51,0,0-.31,4.04,1.67,7.19,0,0,28.25-25.27,36.65-26.5,0,0-33.28,24.98-35.1,29.5,0,0,7.17,1.25,11.8,1.22,0,0-8.81,2.3-13.46.94,0,0-8.3,6.87-8.59,8.87,0,0,14.09,1.45,18.09-.99,0,0-8.44,6.36-19.85,3.65,0,0-7.47,6.92-8.76,10.28,0,0,11.47,2.97,20.65-1.67,0,0-5.73,6.75-21.94,5.03,0,0-5.01,5.44-6.33,12.51Z"/>
    <path class="cls-3" d="m481.88,504.4s5.28-15.9-13.78-18.59c-19.07-2.69-23.33-6.61-23.33-6.61,0,0-2.45,15.82,10.25,26.32,12.7,10.5,24.51,3.68,25.69,1.28,0,0-4.05-1.25-5.29-1.92,0,0-6.65,4.71-11.18,1.44,0,0,4.69,1,9.49-2.26,0,0-4.68-2.1-5.41-2.84,0,0-3.99,2.31-6.99,1.04,0,0,3.06.15,5.7-2.05,0,0-3.31-1.67-4.55-2.71,0,0-2.21,1.08-3.6.48,0,0,1.72-.2,2.87-1.29,0,0-12.9-9.74-14.1-13.16,0,0,13.19,11.87,15.23,12.26,0,0-.06-3.1-.46-5.04,0,0,1.69,3.5,1.5,5.56,0,0,3.56,2.91,4.42,2.87,0,0-.55-6.01-1.9-7.49,0,0,3.36,3.01,3.16,8.01,0,0,3.51,2.56,5.02,2.82,0,0,.3-5.05-2.4-8.5,0,0,3.3,1.84,3.91,8.77,0,0,2.69,1.65,5.76,1.62Z"/>
    <path class="cls-3" d="m736.42,389.52s5.28-15.9-13.78-18.59c-19.07-2.69-23.33-6.61-23.33-6.61,0,0-2.45,15.82,10.25,26.32,12.7,10.5,24.51,3.68,25.69,1.28,0,0-4.05-1.25-5.29-1.92,0,0-6.65,4.71-11.18,1.44,0,0,4.69,1,9.49-2.26,0,0-4.68-2.1-5.41-2.84,0,0-3.99,2.31-6.99,1.04,0,0,3.06.15,5.7-2.05,0,0-3.31-1.67-4.55-2.71,0,0-2.21,1.08-3.6.48,0,0,1.72-.2,2.87-1.29,0,0-12.9-9.74-14.1-13.16,0,0,13.19,11.87,15.23,12.26,0,0-.06-3.1-.46-5.04,0,0,1.69,3.5,1.5,5.56,0,0,3.56,2.91,4.42,2.87,0,0-.55-6.01-1.9-7.49,0,0,3.36,3.01,3.16,8.01,0,0,3.51,2.56,5.02,2.82,0,0,.3-5.05-2.4-8.5,0,0,3.3,1.84,3.91,8.77,0,0,2.69,1.65,5.76,1.62Z"/>
    <path class="cls-3" d="m508.2,217.58s5.28-15.9-13.78-18.59c-19.07-2.69-23.33-6.61-23.33-6.61,0,0-2.45,15.82,10.25,26.32,12.7,10.5,24.51,3.68,25.69,1.28,0,0-4.05-1.25-5.29-1.92,0,0-6.65,4.71-11.18,1.44,0,0,4.69,1,9.49-2.26,0,0-4.68-2.1-5.41-2.84,0,0-3.99,2.31-6.99,1.04,0,0,3.06.15,5.7-2.05,0,0-3.31-1.67-4.55-2.71,0,0-2.21,1.08-3.6.48,0,0,1.72-.2,2.87-1.29,0,0-12.9-9.74-14.1-13.16,0,0,13.19,11.87,15.23,12.26,0,0-.06-3.1-.46-5.04,0,0,1.69,3.5,1.5,5.56,0,0,3.56,2.91,4.42,2.87,0,0-.55-6.01-1.9-7.49,0,0,3.36,3.01,3.16,8.01,0,0,3.51,2.56,5.02,2.82,0,0,.3-5.05-2.4-8.5,0,0,3.3,1.84,3.91,8.77,0,0,2.69,1.65,5.76,1.62Z"/>
    <path class="cls-3" d="m739.97,118.95s5.28-15.9-13.78-18.59c-19.07-2.69-23.33-6.61-23.33-6.61,0,0-2.45,15.82,10.25,26.32,12.7,10.5,24.51,3.68,25.69,1.28,0,0-4.05-1.25-5.29-1.92,0,0-6.65,4.71-11.18,1.44,0,0,4.69,1,9.49-2.26,0,0-4.68-2.1-5.41-2.84,0,0-3.99,2.31-6.99,1.04,0,0,3.06.15,5.7-2.05,0,0-3.31-1.67-4.55-2.71,0,0-2.21,1.08-3.6.48,0,0,1.72-.2,2.87-1.29,0,0-12.9-9.74-14.1-13.16,0,0,13.19,11.87,15.23,12.26,0,0-.06-3.1-.46-5.04,0,0,1.69,3.5,1.5,5.56,0,0,3.56,2.91,4.42,2.87,0,0-.55-6.01-1.9-7.49,0,0,3.36,3.01,3.16,8.01,0,0,3.51,2.56,5.02,2.82,0,0,.3-5.05-2.4-8.5,0,0,3.3,1.84,3.91,8.77,0,0,2.69,1.65,5.76,1.62Z"/>
    <path class="cls-3" d="m643.35,655.5s34.19,19.34,49-23.31c14.81-42.66,25.76-50.7,25.76-50.7,0,0-35.29-12.79-65.19,11.69-29.9,24.48-19.56,54.74-14.56,58.53,0,0,4.7-8.75,6.81-11.3,0,0-7.84-17.44,1.74-26.37,0,0-4.42,10.34.92,22.87,0,0,6.95-9.82,8.98-11.16,0,0-3.52-10.22.77-16.54,0,0-1.73,6.97,2.15,14.04,0,0,5.34-6.87,8.29-9.25,0,0-1.49-5.58.52-8.51,0,0-.31,4.04,1.67,7.19,0,0,28.25-25.27,36.65-26.5,0,0-33.28,24.98-35.1,29.5,0,0,7.17,1.25,11.8,1.22,0,0-8.81,2.3-13.46.94,0,0-8.3,6.87-8.59,8.87,0,0,14.09,1.45,18.09-.99,0,0-8.44,6.36-19.85,3.65,0,0-7.47,6.92-8.76,10.28,0,0,11.47,2.97,20.65-1.67,0,0-5.73,6.75-21.94,5.03,0,0-5.01,5.44-6.33,12.51Z"/>
    <path class="cls-2" d="m353.96,125.61s-20.63-33.43-54.17-3.19c-33.54,30.24-47,32.01-47,32.01,0,0,24.76,28.21,62.76,21.17,38-7.04,43.52-38.54,40.97-44.27,0,0-8.34,5.4-11.42,6.62,0,0-1.54,19.06-14.23,22.27,0,0,8.85-6.94,10.22-20.48,0,0-10.82,5.26-13.25,5.45,0,0-1.84,10.65-8.65,14.13,0,0,4.87-5.27,4.88-13.34,0,0-7.99,3.45-11.73,4.11,0,0-1.39,5.61-4.56,7.2,0,0,2.22-3.39,2-7.1,0,0-36.93,8.52-44.88,5.56,0,0,41.2-5.85,44.97-8.93,0,0-5.68-4.55-9.75-6.75,0,0,8.83,2.23,12.25,5.66,0,0,10.59-2.02,11.8-3.63,0,0-11.65-8.06-16.33-7.85,0,0,10.46-1.5,19.15,6.37,0,0,9.88-2.47,12.63-4.78,0,0-8.62-8.13-18.9-8.49,0,0,8.27-3.16,21.65,6.17,0,0,7.02-2.35,11.58-7.91Z"/>
    <path class="cls-2" d="m365.92,347.19s-17.31-.96-14.82,18.81c2.49,19.77-.27,25.09-.27,25.09,0,0,16.46-1.84,23.5-17.38,7.04-15.53-2.97-25.48-5.69-26,0,0-.15,4.38-.48,5.8,0,0,6.51,5.36,4.47,10.77,0,0-.28-4.95-4.84-8.87,0,0-.83,5.24-1.37,6.17,0,0,3.39,3.35,2.93,6.69,0,0-.68-3.09-3.6-5.13,0,0-.77,3.76-1.47,5.28,0,0,1.68,1.92,1.46,3.47,0,0-.67-1.66-2.07-2.52,0,0-6.23,15.52-9.31,17.65,0,0,8.28-16.39,8.11-18.53,0,0-3.08.91-4.91,1.83,0,0,3.04-2.63,5.14-3.01,0,0,1.94-4.34,1.66-5.19,0,0-5.86,2.18-6.96,3.93,0,0,2.1-4.17,7.14-5.33,0,0,1.6-4.2,1.46-5.78,0,0-5.12,1.07-7.84,4.7,0,0,.94-3.79,7.7-6.28,0,0,.92-3.13.06-6.19Z"/>
    <path class="cls-2" d="m540.02,7.25s-17.31-.96-14.82,18.81c2.49,19.77-.27,25.09-.27,25.09,0,0,16.46-1.84,23.5-17.38,7.04-15.53-2.97-25.48-5.69-26,0,0-.15,4.38-.48,5.8,0,0,6.51,5.36,4.47,10.77,0,0-.28-4.95-4.84-8.87,0,0-.83,5.24-1.37,6.17,0,0,3.39,3.35,2.93,6.69,0,0-.68-3.09-3.6-5.13,0,0-.77,3.76-1.47,5.28,0,0,1.68,1.92,1.46,3.47,0,0-.67-1.66-2.07-2.52,0,0-6.23,15.52-9.31,17.65,0,0,8.28-16.39,8.11-18.53,0,0-3.08.91-4.91,1.83,0,0,3.04-2.63,5.14-3.01,0,0,1.94-4.34,1.66-5.19,0,0-5.86,2.18-6.96,3.93,0,0,2.1-4.17,7.14-5.33,0,0,1.6-4.2,1.46-5.78,0,0-5.12,1.07-7.84,4.7,0,0,.94-3.79,7.7-6.28,0,0,.92-3.13.06-6.19Z"/>
    <path class="cls-2" d="m254.9,7.25s-17.31-.96-14.82,18.81c2.49,19.77-.27,25.09-.27,25.09,0,0,16.46-1.84,23.5-17.38,7.04-15.53-2.97-25.48-5.69-26,0,0-.15,4.38-.48,5.8,0,0,6.51,5.36,4.47,10.77,0,0-.28-4.95-4.84-8.87,0,0-.83,5.24-1.37,6.17,0,0,3.39,3.35,2.93,6.69,0,0-.68-3.09-3.6-5.13,0,0-.77,3.76-1.47,5.28,0,0,1.68,1.92,1.46,3.47,0,0-.67-1.66-2.07-2.52,0,0-6.23,15.52-9.31,17.65,0,0,8.28-16.39,8.11-18.53,0,0-3.08.91-4.91,1.83,0,0,3.04-2.63,5.14-3.01,0,0,1.94-4.34,1.66-5.19,0,0-5.86,2.18-6.96,3.93,0,0,2.1-4.17,7.14-5.33,0,0,1.6-4.2,1.46-5.78,0,0-5.12,1.07-7.84,4.7,0,0,.94-3.79,7.7-6.28,0,0,.92-3.13.06-6.19Z"/>
    <path class="cls-2" d="m573.42,586.12s18.4-15.29-2.69-32.93c-21.09-17.65-23.3-25.62-23.3-25.62,0,0-14.9,17.33-7.43,39.64,7.48,22.31,26.94,22.96,30.18,20.93,0,0-3.97-4.57-4.96-6.32,0,0-11.62.7-14.64-6.68,0,0,4.94,4.75,13.22,4.42,0,0-4.09-6.08-4.42-7.52,0,0-6.58-.2-9.25-4.01,0,0,3.59,2.49,8.46,1.81,0,0-2.76-4.53-3.48-6.72,0,0-3.5-.36-4.73-2.13,0,0,2.23,1.05,4.45.6,0,0-8.28-21.54-7.17-26.59,0,0,7.04,24.34,9.21,26.35,0,0,2.26-3.81,3.24-6.46,0,0-.59,5.51-2.37,7.87,0,0,2.12,6.21,3.19,6.81,0,0,3.87-7.71,3.34-10.51,0,0,1.8,6.18-2.21,12.09,0,0,2.33,5.75,3.96,7.21,0,0,4.17-5.89,3.51-12.12,0,0,2.61,4.72-1.88,13.58,0,0,2.02,4.03,5.75,6.31Z"/>
    <path class="cls-2" d="m720.22,718.02s-17.31-.96-14.82,18.81c2.49,19.77-.27,25.09-.27,25.09,0,0,16.46-1.84,23.5-17.38,7.04-15.53-2.97-25.48-5.69-26,0,0-.15,4.38-.48,5.8,0,0,6.51,5.36,4.47,10.77,0,0-.28-4.95-4.84-8.87,0,0-.83,5.24-1.37,6.17,0,0,3.39,3.35,2.93,6.69,0,0-.68-3.09-3.6-5.13,0,0-.77,3.76-1.47,5.28,0,0,1.68,1.92,1.46,3.47,0,0-.67-1.66-2.07-2.52,0,0-6.23,15.52-9.31,17.65,0,0,8.28-16.39,8.11-18.53,0,0-3.08.91-4.91,1.83,0,0,3.04-2.63,5.14-3.01,0,0,1.94-4.34,1.66-5.19,0,0-5.86,2.18-6.96,3.93,0,0,2.1-4.17,7.14-5.33,0,0,1.6-4.2,1.46-5.78,0,0-5.12,1.07-7.84,4.7,0,0,.94-3.79,7.7-6.28,0,0,.92-3.13.06-6.19Z"/>
    <path class="cls-3" d="m171.84,167.45s58.53-18.41,25.62-80.78C164.55,24.29,167.04,3.22,167.04,3.22c0,0-52.22,26.65-56.15,86.88-3.93,60.23,41.64,80.68,51.29,79.02,0,0-4.97-14.7-5.64-19.83,0,0-28.26-9.64-28.25-30.09,0,0,7.1,16.07,27.08,23.33,0,0-3.81-18.4-3.17-22.15,0,0-15.42-6.87-18.07-18.51,0,0,6.11,9.4,18.32,12.51,0,0-2.15-13.42-1.72-19.33,0,0-7.96-4.25-9.16-9.66,0,0,4.28,4.67,9.99,5.75,0,0,1.27-59.18,8.82-70.08,0,0-6.96,64.62-3.74,71.5,0,0,9.07-6.84,13.97-12.17,0,0-6.77,12.51-13.28,16.38,0,0-1.01,16.8.96,19.26,0,0,16.67-14.54,18.16-21.71,0,0-1.74,16.42-16.99,26.55,0,0-.06,15.9,2.39,20.96,0,0,15.62-9.93,20.1-25.35,0,0,1.6,13.74-17.65,30.41,0,0,.87,11.53,7.53,20.56Z"/>
    <path class="cls-2" d="m449.08,274.97s-61.82,53.59,11.55,112.41c73.37,58.83,81.51,85.92,81.51,85.92,0,0,49.72-60.32,22.55-136.08-27.17-75.76-93.76-76.57-104.69-69.42,0,0,13.88,15.33,17.43,21.25,0,0,39.68-3.21,50.52,21.81,0,0-17.21-15.88-45.51-14.16,0,0,14.43,20.48,15.64,25.41,0,0,22.51.22,31.93,13.05,0,0-12.47-8.25-29.05-5.58,0,0,9.75,15.27,12.36,22.73,0,0,11.99.97,16.33,6.96,0,0-7.71-3.43-15.27-1.73,0,0,29.86,73.06,26.42,90.4,0,0-25.8-82.73-33.39-89.45,0,0-7.46,13.19-10.62,22.31,0,0,1.64-18.89,7.54-27.08,0,0-7.69-21.09-11.4-23.05,0,0-12.67,26.63-10.68,36.19,0,0-6.59-21,6.69-41.49,0,0-8.37-19.48-14.06-24.37,0,0-13.83,20.44-11.13,41.68,0,0-9.26-15.95,5.44-46.56,0,0-7.18-13.64-20.12-21.16Z"/>
  </g>
</svg>